HIERARCHY
ROOT Hips
{
  OFFSET 46.1828 96.0692 -2.60668
  CHANNELS 6 Xposition Yposition Zposition Zrotation Xrotation Yrotation
  JOINT spine
  {
    OFFSET 0 8.13249 0.467659
    CHANNELS 3 Zrotation Xrotation Yrotation
    JOINT spine1
    {
      OFFSET 0 10.3498 0
      CHANNELS 3 Zrotation Xrotation Yrotation
      JOINT spine2
      {
        OFFSET 0 9.91699 0
        CHANNELS 3 Zrotation Xrotation Yrotation
        JOINT Neck
        {
          OFFSET 0 25.461 1.2139
          CHANNELS 3 Zrotation Xrotation Yrotation
          JOINT Head
          {
            OFFSET 0 7.69245 0
            CHANNELS 3 Zrotation Xrotation Yrotation
            End Site
            {
              OFFSET 0 18.62 -6.14063
            }
          }
        }
        JOINT RightShoulder
        {
          OFFSET -4.17575 10.7096 -0.581445
          CHANNELS 3 Zrotation Xrotation Yrotation
          JOINT RightArm
          {
            OFFSET 0 14.0466 0
            CHANNELS 3 Zrotation Xrotation Yrotation
            JOINT RightArmRoll
            {
              OFFSET 0 7.09099 0
              CHANNELS 3 Zrotation Xrotation Yrotation
              JOINT RightForeArm
              {
                OFFSET 0 20.6535 0
                CHANNELS 3 Zrotation Xrotation Yrotation
                JOINT RightForeArmRoll
                {
                  OFFSET 0 7.95718 0
                  CHANNELS 3 Zrotation Xrotation Yrotation
                  JOINT RightHand
                  {
                    OFFSET 0 15.9683 0
                    CHANNELS 3 Zrotation Xrotation Yrotation
                    End Site
                    {
                      OFFSET 0 0 0
                    }
                  }
                }
              }
            }
          }
        }
        JOINT LeftShoulder
        {
          OFFSET 4.17575 10.7096 -0.581445
          CHANNELS 3 Zrotation Xrotation Yrotation
          JOINT LeftArm
          {
            OFFSET 0 14.0466 0
            CHANNELS 3 Zrotation Xrotation Yrotation
            JOINT LeftArmRoll
            {
              OFFSET 0 7.09098 0
              CHANNELS 3 Zrotation Xrotation Yrotation
              JOINT LeftForeArm
              {
                OFFSET 0 20.6535 0
                CHANNELS 3 Zrotation Xrotation Yrotation
                JOINT LeftForeArmRoll
                {
                  OFFSET 0 7.95718 0
                  CHANNELS 3 Zrotation Xrotation Yrotation
                  JOINT LeftHand
                  {
                    OFFSET 0 15.9683 0
                    CHANNELS 3 Zrotation Xrotation Yrotation
                    End Site
                    {
                      OFFSET 0 0 0
                    }
                  }
                }
              }
            }
          }
        }
      }
    }
  }
  JOINT RightUpLeg
  {
    OFFSET -7.20834 -1.32182 -1.10884
    CHANNELS 3 Zrotation Xrotation Yrotation
    JOINT RightUpLegRoll
    {
      OFFSET 0 18.7238 0
      CHANNELS 3 Zrotation Xrotation Yrotation
      JOINT RightLeg
      {
        OFFSET 0 -23.1866 0
        CHANNELS 3 Zrotation Xrotation Yrotation
        JOINT RightLegRoll
        {
          OFFSET 0 23.2624 0
          CHANNELS 3 Zrotation Xrotation Yrotation
          JOINT RightFoot
          {
            OFFSET 0 19.3621 0
            CHANNELS 3 Zrotation Xrotation Yrotation
            JOINT RightToeBase
            {
              OFFSET 0 16.1857 0
              CHANNELS 3 Zrotation Xrotation Yrotation
              End Site
              {
                OFFSET 0.00686052 7.83862 -0.903522
              }
            }
          }
        }
      }
    }
  }
  JOINT LeftUpLeg
  {
    OFFSET 7.20834 -1.32182 -1.10884
    CHANNELS 3 Zrotation Xrotation Yrotation
    JOINT LeftUpLegRoll
    {
      OFFSET 0 18.7239 0
      CHANNELS 3 Zrotation Xrotation Yrotation
      JOINT LeftLeg
      {
        OFFSET 0 23.1865 0
        CHANNELS 3 Zrotation Xrotation Yrotation
        JOINT LeftLegRoll
        {
          OFFSET 0 23.4775 0
          CHANNELS 3 Zrotation Xrotation Yrotation
          JOINT LeftFoot
          {
            OFFSET 0 19.147 0
            CHANNELS 3 Zrotation Xrotation Yrotation
            JOINT LeftToeBase
            {
              OFFSET 0 16.1857 0
              CHANNELS 3 Zrotation Xrotation Yrotation
              End Site
              {
                OFFSET -0.0307459 7.83862 -0.903522
              }
            }
          }
        }
      }
    }
  }
}
MOTION
Frames: 11
Frame Time: 0.00208333
50.2286 95.8655 5.20362 -0.62813 -3.02954 0.333914 0.352997 -0.698376 0.0531442 0.704315 2.59313 0.0674375 0.70428 4.23814 0.055676 -2.3326 14.0881 -3.20191 1.39907 -2.89886 -3.67597 58.5069 -8.91007 -5.5308 115.923 19.314 15.5488 1.02318e-006 -1.9936e-006 -7.9046e-006 8.47225 0.0647567 -0.873883 6.27331e-007 2.60694e-006 -3.04786 8.02908 -4.95143 0.697693 -58.9682 -6.7374 4.18437 -113.993 16.4318 -4.6548 -1.68097e-005 -4.88018e-007 1.33355e-005 -10.4102 0.0793267 0.844318 1.47675e-005 2.72431e-006 3.03632 -8.02894 -4.95147 -0.697693 173.767 2.716 3.66738 180 7.01574e-015 179.049 177.997 13.4165 179.693 -1.26356e-006 7.58204e-007 0.120522 -18.6346 70.4648 21.687 8.12813 25.2387 -3.47662 -172.606 0.888274 -1.53109 4.5067e-006 -1.99009e-005 -0.868938 -0.397614 -13.6049 0.6681 1.26489e-006 1.23472e-006 -0.181858 19.6207 72.6288 -23.9189 -8.13237 25.2329 3.48598 
50.2223 95.8646 5.20839 -0.629057 -3.02236 0.333617 0.352964 -0.699316 0.0523903 0.704054 2.59322 0.066622 0.70403 4.23823 0.0548646 -2.33571 14.0769 -3.20071 1.40518 -2.88107 -3.67548 58.5027 -8.91201 -5.53194 115.931 19.3131 15.5508 1.02318e-006 -1.9936e-006 -7.9046e-006 8.4692 0.0647572 -0.873996 6.27331e-007 2.60694e-006 -3.04786 8.02908 -4.95143 0.697693 -58.9649 -6.74067 4.18626 -114 16.4235 -4.6542 -1.68097e-005 -4.88018e-007 1.33355e-005 -10.4114 0.0793263 0.843894 1.47675e-005 2.72431e-006 3.03632 -8.02894 -4.95147 -0.697693 173.774 2.73325 3.66249 180 7.01574e-015 179.048 178.001 13.4426 179.693 -1.26356e-006 7.58204e-007 0.121955 -18.6596 70.4809 21.703 8.12813 25.2387 -3.47662 -172.603 0.899517 -1.53276 4.5067e-006 -1.99009e-005 -0.868938 -0.396364 -13.6203 0.668294 1.26489e-006 1.23472e-006 -0.181872 19.6357 72.6394 -23.9293 -8.13237 25.2329 3.48598 
50.2136 95.8619 5.21843 -0.629909 -3.01548 0.333259 0.352916 -0.70026 0.0516269 0.703724 2.59341 0.0658407 0.703711 4.23841 0.0540886 -2.33889 14.0656 -3.19951 1.41159 -2.86307 -3.675 58.4987 -8.91395 -5.5331 115.939 19.3127 15.5533 1.02318e-006 -1.9936e-006 -7.9046e-006 8.46563 0.0647578 -0.874165 6.27331e-007 2.60694e-006 -3.04786 8.02908 -4.95143 0.697693 -58.9615 -6.74388 4.1881 -114.007 16.4152 -4.65333 -1.68097e-005 -4.88018e-007 1.33355e-005 -10.4128 0.079326 0.843446 1.47675e-005 2.72431e-006 3.03632 -8.02894 -4.95147 -0.697693 173.78 2.75004 3.65776 180 7.01574e-015 179.048 178.005 13.4684 179.693 -1.26356e-006 7.58204e-007 0.123337 -18.6842 70.497 21.7189 8.12813 25.2387 -3.47662 -172.599 0.910289 -1.53437 4.5067e-006 -1.99009e-005 -0.868938 -0.395054 -13.6356 0.668504 1.26489e-006 1.23472e-006 -0.181827 19.6505 72.65 -23.9396 -8.13237 25.2329 3.48598 
50.2084 95.8611 5.22014 -0.630708 -3.00881 0.332859 0.352856 -0.701208 0.0508567 0.703345 2.59365 0.0650832 0.703343 4.23866 0.0533374 -2.34213 14.0543 -3.1983 1.41819 -2.84492 -3.67452 58.4947 -8.91591 -5.53426 115.947 19.3127 15.5562 1.02318e-006 -1.9936e-006 -7.9046e-006 8.46169 0.0647585 -0.874374 6.27331e-007 2.60694e-006 -3.04786 8.02908 -4.95143 0.697693 -58.9579 -6.74703 4.1899 -114.014 16.4069 -4.65227 -1.68097e-005 -4.88018e-007 1.33355e-005 -10.4143 0.0793256 0.842982 1.47675e-005 2.72431e-006 3.03632 -8.02894 -4.95147 -0.697693 173.786 2.76653 3.65314 180 7.01574e-015 179.047 178.009 13.4941 179.693 -1.26356e-006 7.58204e-007 0.124683 -18.7085 70.5129 21.7347 8.12813 25.2387 -3.47662 -172.596 0.920731 -1.53594 4.5067e-006 -1.99009e-005 -0.868938 -0.393701 -13.6507 0.668724 1.26489e-006 1.23472e-006 -0.181742 19.6652 72.6606 -23.9498 -8.13237 25.2329 3.48598 
50.2045 95.8624 5.22784 -0.631478 -3.00226 0.332435 0.35279 -0.702157 0.0500827 0.702937 2.59394 0.0643393 0.702947 4.23894 0.0526004 -2.3454 14.043 -3.19709 1.42491 -2.82668 -3.67404 58.4908 -8.91787 -5.53543 115.955 19.313 15.5594 1.02318e-006 -1.9936e-006 -7.9046e-006 8.45755 0.0647592 -0.874605 6.27331e-007 2.60694e-006 -3.04786 8.02908 -4.95143 0.697693 -58.9542 -6.75017 4.19168 -114.021 16.3986 -4.65109 -1.68097e-005 -4.88018e-007 1.33355e-005 -10.4158 0.0793252 0.842508 1.47675e-005 2.72431e-006 3.03632 -8.02894 -4.95147 -0.697693 173.792 2.78283 3.64858 180 7.01574e-015 179.046 178.012 13.5197 179.693 -1.26356e-006 7.58204e-007 0.126009 -18.7328 70.5289 21.7504 8.12813 25.2387 -3.47662 -172.593 0.930985 -1.53749 4.5067e-006 -1.99009e-005 -0.868938 -0.392325 -13.6658 0.668951 1.26489e-006 1.23472e-006 -0.181633 19.6798 72.6712 -23.96 -8.13237 25.2329 3.48598 
50.2013 95.8613 5.23059 -0.63224 -2.99573 0.332004 0.352722 -0.703107 0.0493077 0.702523 2.59423 0.0635989 0.702544 4.23924 0.051867 -2.34867 14.0316 -3.19588 1.43166 -2.80842 -3.67356 58.4868 -8.91984 -5.53659 115.962 19.3132 15.5626 1.02318e-006 -1.9936e-006 -7.9046e-006 8.45335 0.0647599 -0.874842 6.27331e-007 2.60694e-006 -3.04786 8.02908 -4.95143 0.697693 -58.9505 -6.75329 4.19346 -114.028 16.3903 -4.64989 -1.68097e-005 -4.88018e-007 1.33355e-005 -10.4173 0.0793248 0.842033 1.47675e-005 2.72431e-006 3.03632 -8.02894 -4.95147 -0.697693 173.799 2.79909 3.64404 180 7.01574e-015 179.046 178.016 13.5453 179.693 -1.26356e-006 7.58204e-007 0.12733 -18.757 70.5448 21.7662 8.12813 25.2387 -3.47662 -172.589 0.941192 -1.53903 4.5067e-006 -1.99009e-005 -0.868938 -0.390942 -13.6809 0.669179 1.26489e-006 1.23472e-006 -0.181519 19.6945 72.6819 -23.9701 -8.13237 25.2329 3.48598 
50.1969 95.8562 5.22269 -0.633017 -2.98915 0.331586 0.352657 -0.704056 0.0485347 0.702123 2.59451 0.0628516 0.702154 4.23952 0.0511264 -2.35193 14.0203 -3.19467 1.43835 -2.7902 -3.67309 58.4829 -8.92179 -5.53776 115.97 19.3134 15.5657 1.02318e-006 -1.9936e-006 -7.9046e-006 8.44926 0.0647606 -0.875067 6.27331e-007 2.60694e-006 -3.04786 8.02908 -4.95143 0.697693 -58.9468 -6.75643 4.19525 -114.035 16.3821 -4.64875 -1.68097e-005 -4.88018e-007 1.33355e-005 -10.4188 0.0793245 0.841562 1.47675e-005 2.72431e-006 3.03632 -8.02894 -4.95147 -0.697693 173.805 2.81543 3.63946 180 7.01574e-015 179.045 178.019 13.5709 179.693 -1.26356e-006 7.58204e-007 0.128661 -18.7813 70.5607 21.7821 8.12813 25.2387 -3.47662 -172.586 0.951493 -1.54059 4.5067e-006 -1.99009e-005 -0.868938 -0.389571 -13.696 0.669404 1.26489e-006 1.23472e-006 -0.181416 19.7091 72.6925 -23.9803 -8.13237 25.2329 3.48598 
50.1904 95.8558 5.23002 -0.633831 -2.98242 0.331198 0.352601 -0.705003 0.0477664 0.701758 2.59474 0.0620873 0.7018 4.23974 0.0503682 -2.35515 14.009 -3.19346 1.4449 -2.77209 -3.67261 58.4789 -8.92375 -5.53892 115.978 19.3133 15.5686 1.02318e-006 -1.9936e-006 -7.9046e-006 8.44542 0.0647612 -0.875265 6.27331e-007 2.60694e-006 -3.04786 8.02908 -4.95143 0.697693 -58.9433 -6.7596 4.19706 -114.042 16.3738 -4.64774 -1.68097e-005 -4.88018e-007 1.33355e-005 -10.4202 0.0793241 0.841103 1.47675e-005 2.72431e-006 3.03632 -8.02894 -4.95147 -0.697693 173.811 2.83201 3.63481 180 7.01573e-015 179.045 178.023 13.5966 179.693 -1.26356e-006 7.58204e-007 0.130017 -18.8058 70.5767 21.798 8.12813 25.2387 -3.47662 -172.583 0.96203 -1.54217 4.5067e-006 -1.99009e-005 -0.868938 -0.38823 -13.7112 0.669622 1.26489e-006 1.23472e-006 -0.181342 19.7239 72.7032 -23.9906 -8.13237 25.2329 3.48598 
50.1842 95.8558 5.24525 -0.634705 -2.97545 0.330858 0.352557 -0.705946 0.0470059 0.701448 2.5949 0.0612958 0.701502 4.2399 0.0495816 -2.3583 13.9978 -3.19226 1.45121 -2.75415 -3.67213 58.4748 -8.92569 -5.54007 115.986 19.3127 15.5709 1.02318e-006 -1.9936e-006 -7.9046e-006 8.44201 0.0647618 -0.875417 6.27331e-007 2.60694e-006 -3.04786 8.02908 -4.95143 0.697693 -58.9399 -6.76282 4.19891 -114.049 16.3654 -4.64695 -1.68097e-005 -4.88018e-007 1.33355e-005 -10.4216 0.0793238 0.840662 1.47675e-005 2.72431e-006 3.03632 -8.02894 -4.95147 -0.697693 173.817 2.84894 3.63003 180 7.01573e-015 179.044 178.027 13.6225 179.693 -1.26356e-006 7.58204e-007 0.131414 -18.8307 70.5927 21.8141 8.12813 25.2387 -3.47662 -172.579 0.972943 -1.5438 4.5067e-006 -1.99009e-005 -0.868938 -0.386937 -13.7265 0.669828 1.26489e-006 1.23472e-006 -0.181315 19.7389 72.7138 -24.0011 -8.13237 25.2329 3.48598 
50.1808 95.8544 5.24546 -0.635661 -2.96815 0.330585 0.352531 -0.706884 0.0462558 0.701216 2.59495 0.0604667 0.70128 4.23995 0.048756 -2.36138 13.9866 -3.19106 1.4572 -2.73645 -3.67164 58.4706 -8.92763 -5.54121 115.994 19.3116 15.5726 1.02318e-006 -1.9936e-006 -7.9046e-006 8.43917 0.0647623 -0.875508 6.27331e-007 2.60694e-006 -3.04786 8.02908 -4.95143 0.697693 -58.9367 -6.76612 4.20082 -114.056 16.3571 -4.64646 -1.68097e-005 -4.88018e-007 1.33355e-005 -10.4228 0.0793234 0.840246 1.47675e-005 2.72431e-006 3.03632 -8.02894 -4.95147 -0.697693 173.824 2.86636 3.62508 180 7.01573e-015 179.044 178.031 13.6486 179.693 -1.26356e-006 7.58204e-007 0.132867 -18.8561 70.6089 21.8304 8.12813 25.2387 -3.47662 -172.576 0.984374 -1.5455 4.5067e-006 -1.99009e-005 -0.868938 -0.38571 -13.742 0.670016 1.26489e-006 1.23472e-006 -0.181352 19.754 72.7243 -24.0117 -8.13237 25.2329 3.48598 
50.1789 95.8504 5.23586 -0.636722 -2.96043 0.330396 0.352527 -0.707817 0.0455191 0.701082 2.59487 0.05959 0.701156 4.23988 0.0478808 -2.36434 13.9755 -3.18987 1.46279 -2.71904 -3.67116 58.4664 -8.92954 -5.54234 116.003 19.3098 15.5735 1.02318e-006 -1.9936e-006 -7.9046e-006 8.43706 0.0647626 -0.87552 6.27331e-007 2.60694e-006 -3.04786 8.02908 -4.95143 0.697693 -58.9339 -6.7695 4.20279 -114.063 16.3487 -4.64635 -1.68097e-005 -4.88018e-007 1.33355e-005 -10.4238 0.0793232 0.839864 1.47675e-005 2.72431e-006 3.03632 -8.02894 -4.95147 -0.697693 173.831 2.88441 3.6199 180 7.01573e-015 179.043 178.035 13.6751 179.693 -1.26356e-006 7.58204e-007 0.134392 -18.882 70.6251 21.8469 8.12813 25.2387 -3.47662 -172.572 0.996465 -1.54728 4.5067e-006 -1.99009e-005 -0.868938 -0.384567 -13.7578 0.670183 1.26489e-006 1.23472e-006 -0.181471 19.7694 72.7348 -24.0225 -8.13237 25.2329 3.48598 
